<?xml version="1.0" encoding="UTF-8"?>
<svg id="Capa_2" data-name="Capa 2" xmlns="http://www.w3.org/2000/svg" viewBox="0 0 356.33 356.33">
  <defs>
    <style>
      .cls-1 {
        fill: #fff;
      }

      .cls-2 {
        fill: #3b82f6;
      }
    </style>
  </defs>
  <g id="Capa_1-2" data-name="Capa 1">
    <g>
      <rect class="cls-2" width="356.33" height="356.33" rx="36.2" ry="36.2"/>
      <g>
        <path class="cls-1" d="M236.34,115.5c-27.75.3-54.59,10.89-76.23,25.88.14-3.24,6.33-66.62,6.25-69.97.76-37.3-57.75-40.3-60.42-2.71,0,0-19.37,212.71-19.37,212.71-1.32,14.57,7.91,27.67,21.4,31.72,58.42,14.15,27.62-93.88,91.41-125.53l-8.54,93.81c-4.12,38.97,57.19,44.76,60.29,5.49,0,0,9.34-102.61,9.34-102.61,2.61-23.54,11.08-66.27-24.13-68.79Z"/>
        <path class="cls-1" d="M242.81,41.35c-16.38-1.49-30.87,10.58-32.36,26.96-1.5,16.37,10.57,30.86,26.95,32.35,16.38,1.5,30.87-10.57,32.36-26.95,1.49-16.38-10.58-30.87-26.95-32.36Z"/>
      </g>
    </g>
  </g>
</svg>