<?xml version="1.0" encoding="UTF-8"?>
<svg id="Capa_2" data-name="Capa 2" xmlns="http://www.w3.org/2000/svg" viewBox="0 0 467.52 158.73">
  <g id="Capa_1-2" data-name="Capa 1">
    <g>
      <path d="M9.87,157.39c-2.96,0-5.34-.91-7.15-2.72-1.81-1.81-2.72-4.2-2.72-7.15V9.87c0-2.95.91-5.34,2.72-7.15C4.53.91,6.92,0,9.87,0s5.34.91,7.15,2.72c1.81,1.81,2.72,4.2,2.72,7.15v137.64c0,2.96-.91,5.34-2.72,7.15-1.81,1.81-4.2,2.72-7.15,2.72ZM19.35,117.08l-12.49-13.7,61.87-55.22c2.02-1.88,4.26-2.75,6.75-2.62,2.48.14,4.6,1.21,6.35,3.22,1.88,2.01,2.75,4.23,2.62,6.65-.14,2.42-1.21,4.57-3.22,6.45l-61.87,55.22ZM81.82,156.38c-2.15,1.74-4.53,2.52-7.15,2.32-2.62-.2-4.8-1.38-6.55-3.53l-40.91-50.58,14.11-13.3,41.92,51.59c1.74,2.15,2.52,4.47,2.32,6.95-.2,2.49-1.45,4.67-3.73,6.55Z"/>
      <path d="M130.38,158.19c-10.88,0-20.49-2.38-28.82-7.15-8.33-4.77-14.88-11.35-19.65-19.75-4.77-8.4-7.15-18.04-7.15-28.92s2.38-20.72,7.15-29.12c4.77-8.39,11.32-14.98,19.65-19.75,8.33-4.77,17.94-7.15,28.82-7.15s20.28,2.39,28.62,7.15c8.33,4.77,14.88,11.35,19.65,19.75,4.77,8.4,7.15,18.11,7.15,29.12s-2.35,20.52-7.05,28.92c-4.7,8.4-11.22,14.98-19.55,19.75-8.33,4.77-17.94,7.15-28.82,7.15ZM130.38,140.06c6.98,0,13.17-1.61,18.54-4.84,5.37-3.22,9.57-7.66,12.59-13.3,3.02-5.64,4.53-12.16,4.53-19.55s-1.51-13.94-4.53-19.65c-3.02-5.71-7.22-10.18-12.59-13.4-5.38-3.22-11.56-4.84-18.54-4.84s-13.17,1.61-18.54,4.84c-5.38,3.22-9.61,7.69-12.7,13.4-3.09,5.71-4.63,12.26-4.63,19.65s1.54,13.91,4.63,19.55c3.09,5.64,7.32,10.08,12.7,13.3,5.37,3.22,11.55,4.84,18.54,4.84Z"/>
      <path d="M202.53,157.59c-2.96,0-5.41-.97-7.36-2.92-1.95-1.95-2.92-4.4-2.92-7.36V57.43c0-3.09.97-5.57,2.92-7.46,1.95-1.88,4.4-2.82,7.36-2.82s5.57.94,7.46,2.82c1.88,1.88,2.82,4.37,2.82,7.46v89.88c0,2.96-.94,5.41-2.82,7.36-1.88,1.95-4.37,2.92-7.46,2.92ZM285.35,157.59c-2.96,0-5.41-.97-7.36-2.92-1.95-1.95-2.92-4.4-2.92-7.36v-49.57c0-7.66-1.41-13.91-4.23-18.74-2.82-4.84-6.62-8.43-11.39-10.78-4.77-2.35-10.25-3.53-16.42-3.53-5.64,0-10.75,1.14-15.32,3.43-4.57,2.29-8.2,5.34-10.88,9.17-2.69,3.83-4.03,8.23-4.03,13.2h-12.7c0-8.46,2.05-16.02,6.15-22.67,4.1-6.65,9.7-11.92,16.83-15.82,7.12-3.89,15.11-5.84,23.98-5.84s17.56,1.98,24.89,5.95c7.32,3.96,13.1,9.77,17.33,17.43,4.23,7.66,6.35,17.06,6.35,28.21v49.57c0,2.96-.98,5.41-2.92,7.36-1.95,1.95-4.4,2.92-7.36,2.92Z"/>
      <path d="M300.87,68.52c-2.82,0-5.11-.81-6.85-2.42-1.75-1.61-2.62-3.63-2.62-6.04,0-2.69.87-4.84,2.62-6.45,1.74-1.61,4.03-2.42,6.85-2.42h46.55c2.82,0,5.1.81,6.85,2.42,1.74,1.61,2.62,3.76,2.62,6.45,0,2.42-.88,4.43-2.62,6.04-1.75,1.61-4.03,2.42-6.85,2.42h-46.55ZM345.61,157.39c-6.72,0-12.77-1.71-18.14-5.14-5.38-3.43-9.61-8.09-12.7-14.01-3.09-5.91-4.64-12.56-4.64-19.95V22.17c0-2.95.94-5.37,2.82-7.25s4.3-2.82,7.25-2.82,5.37.94,7.25,2.82c1.88,1.88,2.82,4.3,2.82,7.25v96.13c0,5.38,1.48,9.88,4.43,13.5,2.95,3.63,6.58,5.44,10.88,5.44h6.85c2.42,0,4.46.94,6.15,2.82,1.68,1.88,2.52,4.3,2.52,7.25s-1.11,5.38-3.33,7.25c-2.22,1.88-5.07,2.82-8.56,2.82h-3.63Z"/>
      <path d="M408.08,158.19c-9.81,0-18.61-2.45-26.4-7.36-7.79-4.9-13.94-11.55-18.44-19.95-4.5-8.39-6.75-17.9-6.75-28.52s2.45-20.15,7.36-28.62c4.9-8.46,11.55-15.15,19.95-20.05,8.39-4.9,17.83-7.36,28.31-7.36s19.88,2.45,28.21,7.36c8.33,4.91,14.94,11.59,19.85,20.05,4.9,8.46,7.36,18,7.36,28.62h-7.86c0,10.61-2.25,20.12-6.75,28.52-4.5,8.4-10.65,15.05-18.44,19.95-7.79,4.91-16.59,7.36-26.4,7.36ZM412.11,140.06c6.85,0,12.96-1.64,18.34-4.94,5.37-3.29,9.6-7.79,12.7-13.5,3.09-5.71,4.63-12.12,4.63-19.25s-1.55-13.74-4.63-19.45c-3.09-5.71-7.32-10.21-12.7-13.5-5.38-3.29-11.49-4.94-18.34-4.94s-12.8,1.65-18.24,4.94c-5.44,3.29-9.74,7.79-12.9,13.5-3.16,5.71-4.74,12.19-4.74,19.45s1.58,13.54,4.74,19.25c3.16,5.71,7.46,10.21,12.9,13.5,5.44,3.29,11.52,4.94,18.24,4.94ZM457.25,157.59c-2.96,0-5.41-.97-7.36-2.92-1.95-1.95-2.92-4.4-2.92-7.36v-30.83l3.83-21.36,16.73,7.25v44.94c0,2.96-.98,5.41-2.92,7.36s-4.4,2.92-7.36,2.92ZM464.6,49.27c1.95,1.95,2.92,4.4,2.92,7.36v44.94s-16.73,7.25-16.73,7.25l-3.83-21.36v-30.83c0-2.96.97-5.41,2.92-7.36,1.95-1.95,4.4-2.92,7.36-2.92s5.41.97,7.36,2.92Z"/>
    </g>
  </g>
</svg>